<?xml version="1.0" encoding="utf-8"?>
<!-- Generator: Adobe Illustrator 24.0.0, SVG Export Plug-In . SVG Version: 6.00 Build 0)  -->
<svg version="1.1" id="Layer_1" xmlns="http://www.w3.org/2000/svg" xmlns:xlink="http://www.w3.org/1999/xlink" x="0px" y="0px"
	 viewBox="0 0 300 300" style="enable-background:new 0 0 300 300;" xml:space="preserve">
<style type="text/css">
	.st0{enable-background:new    ;}
	.st1{fill:#3B7267;}
</style>
<g id="Layer_2_1_">
	<g id="Recreation_-_Seniors">
		<g class="st0">
			<path class="st1" d="M88.5,169.4l6.3-7.9c3.6,3.8,8.6,5.8,14.2,5.8c6.3,0,9.9-3.6,9.9-7.9c0-4.7-3.5-7.9-9.6-7.9
				c-4.4,0-8,1.3-11.2,4.3l-7.9-2.2V123h36.6v10h-25.3v13c2.6-2.6,6.9-4.5,11.8-4.5c9,0,17.1,6.5,17.1,17.3
				c0,11.3-8.5,18.5-21.4,18.5C99.8,177.4,93,174.3,88.5,169.4z"/>
		</g>
		<g class="st0">
			<path class="st1" d="M136.5,169.4l6.3-7.9c3.6,3.8,8.6,5.8,14.2,5.8c6.3,0,9.9-3.6,9.9-7.9c0-4.7-3.5-7.9-9.6-7.9
				c-4.4,0-8,1.3-11.2,4.3l-7.9-2.2V123h36.6v10h-25.3v13c2.6-2.6,6.9-4.5,11.8-4.5c9,0,17.1,6.5,17.1,17.3
				c0,11.3-8.5,18.5-21.4,18.5C147.8,177.4,141,174.3,136.5,169.4z"/>
		</g>
		<g class="st0">
			<path class="st1" d="M205.8,152.6v16.2h-7v-16.2h-14.4v-6.3h14.4v-15.7h7v15.7h14.3v6.3H205.8z"/>
		</g>
		<path class="st1" d="M150,15c74.6,0,135,60.4,135,135c0,35.8-14.2,70.1-39.5,95.5c-52.7,52.7-138.2,52.7-190.9,0
			s-52.7-138.2,0-190.9C79.8,29.1,114.2,14.9,150,15 M150,0C67.2,0,0,67.2,0,150s67.2,150,150,150s150-67.2,150-150S232.8,0,150,0z"
			/>
	</g>
</g>
</svg>
