<svg xmlns="http://www.w3.org/2000/svg" viewBox="0 0 300 300"><defs><style>.cls-1{fill:#3b7267;}</style></defs><g id="Layer_2" data-name="Layer 2"><g id="About_-_Facilities" data-name="About - Facilities"><path class="cls-1" d="M201.08,107.54A55.14,55.14,0,0,0,154.39,75.2a61.26,61.26,0,0,0-8.78,0,55.14,55.14,0,0,0-46.69,32.34,58.76,58.76,0,0,0,5.73,59.33l41,55.9a5.39,5.39,0,0,0,7.53,1.15,5.7,5.7,0,0,0,1.15-1.15l41-55.9A58.76,58.76,0,0,0,201.08,107.54Zm-51.08,41a17.32,17.32,0,1,1,17.32-17.32h0A17.3,17.3,0,0,1,150,148.58Z"/><path class="cls-1" d="M150,15a135,135,0,0,1,95.46,230.46A135,135,0,0,1,54.54,54.54,134.11,134.11,0,0,1,150,15m0-15A150,150,0,1,0,300,150,150,150,0,0,0,150,0Z"/></g></g></svg>