<svg xmlns="http://www.w3.org/2000/svg" viewBox="0 0 300 300"><defs><style>.cls-1{fill:#3b7267;}</style></defs><g id="Layer_2" data-name="Layer 2"><g id="Services_-_Snow_Removal" data-name="Services - Snow Removal"><path class="cls-1" d="M199.86,111.55a28.35,28.35,0,0,0-5.39.5,43.68,43.68,0,0,0-86.07-7.41,18.12,18.12,0,0,0-3-.17,33.27,33.27,0,0,0,0,66.53h94.49a29.73,29.73,0,1,0,0-59.45Z"/><circle class="cls-1" cx="112.45" cy="192.56" r="11.12"/><circle class="cls-1" cx="150.85" cy="192.56" r="11.12"/><circle class="cls-1" cx="189.25" cy="192.56" r="11.12"/><circle class="cls-1" cx="131.65" cy="220.01" r="11.12"/><circle class="cls-1" cx="170.05" cy="220.01" r="11.12"/><path class="cls-1" d="M150,15a135,135,0,0,1,95.46,230.46A135,135,0,0,1,54.54,54.54,134.11,134.11,0,0,1,150,15m0-15A150,150,0,1,0,300,150,150,150,0,0,0,150,0Z"/></g></g></svg>