<svg xmlns="http://www.w3.org/2000/svg" viewBox="0 0 300 300"><defs><style>.cls-1{fill:#3b7267;}</style></defs><g id="Layer_2" data-name="Layer 2"><g id="Contact_-_Careers" data-name="Contact - Careers"><path class="cls-1" d="M80,192.39c0,6.47,5.6,11.83,12.69,11.83H207.16c7.08,0,12.86-5.36,12.86-11.83V152.77H80Z"/><path class="cls-1" d="M207.16,117.27H181.59V107.06c0-6.47-5.75-11.28-12.84-11.28H133.2c-7.08,0-13.16,4.81-13.16,11.28v10.21H92.67c-7.09,0-12.69,4.82-12.69,11.28v18H220v-18C220,122.09,214.24,117.27,207.16,117.27Zm-36.31-.3-39.63.6-.12-7.6c0-2.31,1.91-3.49,4.4-3.53l30.74-.46c2.49,0,4.46,1.08,4.5,3.4Z"/><path class="cls-1" d="M150,15a135,135,0,0,1,95.46,230.46A135,135,0,0,1,54.54,54.54,134.11,134.11,0,0,1,150,15m0-15A150,150,0,1,0,300,150,150,150,0,0,0,150,0Z"/></g></g></svg>