<?xml version="1.0" encoding="utf-8"?>
<!-- Generator: Adobe Illustrator 24.0.0, SVG Export Plug-In . SVG Version: 6.00 Build 0)  -->
<svg version="1.1" id="Layer_1" xmlns="http://www.w3.org/2000/svg" xmlns:xlink="http://www.w3.org/1999/xlink" x="0px" y="0px"
	 viewBox="0 0 300 300" style="enable-background:new 0 0 300 300;" xml:space="preserve">
<style type="text/css">
	.st0{enable-background:new    ;}
	.st1{fill:#3B7267;}
</style>
<g id="Layer_2_1_">
	<g id="Recreation_-_Adults_Inclusive_">
		<g class="st0">
			<path class="st1" d="M104.3,175.9v-38.7l-8.9,9l-6.5-6.8l16.8-16.9h9.9v53.4H104.3z"/>
		</g>
		<g class="st0">
			<path class="st1" d="M125.6,162c0-6.5,5-11.4,11.4-13.7c-5.9-2.1-10.6-5.9-10.6-12.6c0-10.1,10.6-14.1,20.6-14.1
				c9.8,0,20.6,4,20.6,14.1c0,6.6-4.7,10.5-10.6,12.6c6.3,2.2,11.4,7.2,11.4,13.7c0,9.9-10.2,14.8-21.4,14.8
				C135.8,176.8,125.6,171.9,125.6,162z M157,160.4c0-4.4-6.6-6.5-9.9-7c-3.4,0.5-9.9,2.6-9.9,7c0,3.8,4.3,6.3,9.9,6.3
				C152.5,166.7,157,164.3,157,160.4z M156,137.7c0-3.8-3.8-5.9-9-5.9c-5.3,0-9,2.2-9,5.9c0,3.9,5.8,5.6,9,6.2
				C150.3,143.3,156,141.6,156,137.7z"/>
		</g>
		<g class="st0">
			<path class="st1" d="M198.2,152v16.2h-7V152h-14.4v-6.3h14.4V130h7v15.7h14.3v6.3H198.2z"/>
		</g>
		<path class="st1" d="M150,15c74.6,0,135,60.4,135,135c0,35.8-14.2,70.1-39.5,95.5c-52.7,52.7-138.2,52.7-190.9,0
			s-52.7-138.2,0-190.9C79.8,29.1,114.2,14.9,150,15 M150,0C67.2,0,0,67.2,0,150s67.2,150,150,150s150-67.2,150-150S232.8,0,150,0z"
			/>
	</g>
</g>
</svg>
