<svg xmlns="http://www.w3.org/2000/svg" viewBox="0 0 300 300"><defs><style>.cls-1{fill:#3b7267;}</style></defs><g id="Layer_2" data-name="Layer 2"><g id="Contact_-_Volunteer" data-name="Contact - Volunteer"><path class="cls-1" d="M228.71,130.38A47.91,47.91,0,0,0,149.7,94a47.88,47.88,0,0,0-65.24,69.88,2.93,2.93,0,0,0,.37.42l62.1,62.1a4,4,0,0,0,5.65,0l.46-.46.06,0,13.5-13.49a.86.86,0,0,1,.13-.14l47.94-48A47.6,47.6,0,0,0,228.71,130.38ZM209,102.15a39.92,39.92,0,0,1,1.13,55.27,15.05,15.05,0,0,0-4.22-8.24L168.76,112a4,4,0,0,0-5.65,0l-.06.09-.1.07-23,23a7.13,7.13,0,1,1-10.09-10.09l23-23a4,4,0,0,0,.57-.74,39.9,39.9,0,0,1,55.6.81ZM149.76,217.88l-8.84-8.83,11.19-11.19a6.21,6.21,0,0,1,4.42-1.83h0a6.18,6.18,0,0,1,4.42,1.84,6.25,6.25,0,0,1,.13,8.69Zm-32.27-54.63-11.18,11.19-8.84-8.84,11.19-11.19a6.21,6.21,0,0,1,4.42-1.83h0a6.25,6.25,0,0,1,4.41,10.67Zm5.65,5.65a6.25,6.25,0,1,1,8.84,8.83l-11.19,11.19L112,180.08Zm14.49,14.48a6.24,6.24,0,0,1,8.83,0,6.25,6.25,0,0,1,0,8.84L135.28,203.4l-8.84-8.83ZM90.88,102.56A39.92,39.92,0,0,1,144,99.62l-19.84,19.84a15.12,15.12,0,1,0,21.38,21.38l20.38-20.37,34.35,34.36a7.13,7.13,0,1,1-10.08,10.09L160,134.74a4.17,4.17,0,0,0-.88-.65,4,4,0,0,0-5.12,6.08l30.18,30.18a7.14,7.14,0,0,1-5,12.18h0a7.12,7.12,0,0,1-5-2.09l-29.73-29.73h0l-.45-.45a4,4,0,1,0-5.64,5.65l15.64,15.65,15,15a7.14,7.14,0,0,1,.43,9.61,13.92,13.92,0,0,0-2.75-3.92,14.15,14.15,0,0,0-10.07-4.17h-.27a14.21,14.21,0,0,0-14.21-14.5h0l-.25,0c0-.09,0-.18,0-.27a14.24,14.24,0,0,0-14.24-14.23h-.26c0-.09,0-.17,0-.26a14.24,14.24,0,0,0-14.23-14.24h0A14.18,14.18,0,0,0,103,148.76L91.82,160l-1-1-.28-.33A40,40,0,0,1,90.88,102.56Z"/><path class="cls-1" d="M150,15a135,135,0,0,1,95.46,230.46A135,135,0,0,1,54.54,54.54,134.11,134.11,0,0,1,150,15m0-15A150,150,0,1,0,300,150,150,150,0,0,0,150,0Z"/></g></g></svg>