<svg xmlns="http://www.w3.org/2000/svg" viewBox="0 0 300 300"><defs><style>.cls-1{fill:#3b7267;}</style></defs><g id="Layer_2" data-name="Layer 2"><g id="Recreation_-_Bookings" data-name="Recreation - Bookings"><path class="cls-1" d="M156.15,171.48H143.54A4.57,4.57,0,0,0,139,176v7.75a4.57,4.57,0,0,0,4.56,4.56h12.61a4.58,4.58,0,0,0,4.56-4.56V176A4.68,4.68,0,0,0,156.15,171.48Z"/><path class="cls-1" d="M123.63,171.48H111a4.57,4.57,0,0,0-4.56,4.56v7.75a4.58,4.58,0,0,0,4.56,4.56h12.62a4.58,4.58,0,0,0,4.56-4.56V176A4.68,4.68,0,0,0,123.63,171.48Z"/><path class="cls-1" d="M156.15,143.06H143.54a4.57,4.57,0,0,0-4.56,4.56v7.75a4.57,4.57,0,0,0,4.56,4.56h12.61a4.58,4.58,0,0,0,4.56-4.56v-7.75A4.68,4.68,0,0,0,156.15,143.06Z"/><path class="cls-1" d="M123.63,143.06H111a4.57,4.57,0,0,0-4.56,4.56v7.75a4.58,4.58,0,0,0,4.56,4.56h12.62a4.58,4.58,0,0,0,4.56-4.56v-7.75A4.68,4.68,0,0,0,123.63,143.06Z"/><path class="cls-1" d="M188.68,143.06H176.06a4.57,4.57,0,0,0-4.56,4.56v7.75a4.58,4.58,0,0,0,4.56,4.56h12.62a4.58,4.58,0,0,0,4.56-4.56v-7.75A4.68,4.68,0,0,0,188.68,143.06Z"/><path class="cls-1" d="M215.88,172.85V112.51a15.19,15.19,0,0,0-3.95-10.18v-.16h-.15A15.51,15.51,0,0,0,200.23,97h-11.4V90.17A5.13,5.13,0,0,0,183.66,85h-7.75a5.13,5.13,0,0,0-5.17,5.17V97h-42V90.17A5.12,5.12,0,0,0,123.63,85h-7.75a5.13,5.13,0,0,0-5.17,5.17V97H99.31a15.51,15.51,0,0,0-11.55,5.16h0v.16a15.19,15.19,0,0,0-4,10.18v82.83a15.57,15.57,0,0,0,15.5,15.5h72.8a29.76,29.76,0,1,0,43.77-38Zm-47.27,24a30,30,0,0,0,.31,3.65H99.31a5.13,5.13,0,0,1-5.17-5.17V132.11H205.39V168a27,27,0,0,0-7-.91A29.84,29.84,0,0,0,168.61,196.86Zm42.1-3L198.4,207a4,4,0,0,1-5.77,0l-7.3-7.9a3.87,3.87,0,0,1,5.63-5.32l4.56,4.86,9.42-10.18a3.85,3.85,0,0,1,5.47-.15A3.74,3.74,0,0,1,210.71,193.82Z"/><path class="cls-1" d="M150,15a135,135,0,0,1,95.46,230.46A135,135,0,0,1,54.54,54.54,134.11,134.11,0,0,1,150,15m0-15A150,150,0,1,0,300,150,150,150,0,0,0,150,0Z"/></g></g></svg>