<?xml version="1.0" encoding="utf-8"?>
<!-- Generator: Adobe Illustrator 24.0.0, SVG Export Plug-In . SVG Version: 6.00 Build 0)  -->
<svg version="1.1" id="Layer_1" xmlns="http://www.w3.org/2000/svg" xmlns:xlink="http://www.w3.org/1999/xlink" x="0px" y="0px"
	 viewBox="0 0 300 300" style="enable-background:new 0 0 300 300;" xml:space="preserve">
<style type="text/css">
	.st0{fill:#3B7267;}
</style>
<g id="Layer_2_1_">
	<g id="Governance_-_Bylaws">
		<path class="st0" d="M214.4,194.2v9.5c0,1.9-1.5,3.4-3.4,3.4c0,0,0,0,0,0H89.5c-1.9,0-3.4-1.5-3.4-3.4l0,0v-9.5
			c0-1.9,1.5-3.4,3.4-3.4l0,0h121.5C212.9,190.9,214.4,192.4,214.4,194.2C214.4,194.2,214.4,194.2,214.4,194.2z M135,120.9
			l41.5-19.4c1.3-0.6,1.7-2.4,0.9-4.1c-2.4-5.1-7.4-7.7-11.2-5.9l-32.3,15.1c-3.8,1.8-5,7.3-2.6,12.4
			C132,120.6,133.7,121.5,135,120.9z M196.6,144.3L155,163.7c-1.3,0.6-1.7,2.4-0.9,4.1c2.4,5.1,7.4,7.7,11.2,6l32.3-15.1
			c3.8-1.8,5-7.3,2.6-12.4C199.4,144.6,197.8,143.7,196.6,144.3L196.6,144.3z M155.3,156.1l35.1-16.4c0.5-0.2,0.7-0.8,0.5-1.3
			c0,0,0,0,0,0l-13.4-28.7c-0.2-0.5-0.8-0.7-1.3-0.5c0,0,0,0,0,0L141,125.5c-0.5,0.2-0.7,0.8-0.5,1.3c0,0,0,0,0,0l3.7,7.9
			l-56.3,26.3c-1.3,0.6-1.7,2.4-0.9,4.1l3.2,6.8c0.8,1.7,2.5,2.6,3.7,2l56.4-26.3l3.7,7.9C154.2,156.1,154.8,156.3,155.3,156.1
			C155.3,156.1,155.3,156.1,155.3,156.1z"/>
		<path class="st0" d="M150,15c74.6,0,135,60.4,135,135c0,35.8-14.2,70.1-39.5,95.5c-52.7,52.7-138.2,52.7-190.9,0
			s-52.7-138.2,0-190.9C79.8,29.1,114.2,14.9,150,15 M150,0C67.2,0,0,67.2,0,150s67.2,150,150,150s150-67.2,150-150S232.8,0,150,0z"
			/>
	</g>
</g>
</svg>
