<svg xmlns="http://www.w3.org/2000/svg" viewBox="0 0 300 300"><defs><style>.cls-1,.cls-2{fill:#3b7267;}.cls-1{fill-rule:evenodd;}</style></defs><g id="Layer_2" data-name="Layer 2"><g id="Governance_-_Elections" data-name="Governance - Elections"><path class="cls-1" d="M124.4,87.52,88,117l2.65,13.37,9-3.65,31.14-26.29,2.05-2.1Z"/><path class="cls-1" d="M133.51,106.5c-9.79,8.34-19.65,16.6-29.49,24.88,2.73,16.5,7,26.08,14.27,33.65,7.51,7.83,18.63,13.72,35,21.87l.15,0c5.14,3,9,1.21,10.61-1.35a5,5,0,0,0,.6-4.35c-.51-1.63-1.9-3.57-5-5.36l-.05,0c-9.32-5.61-13.2-6.61-18.52-10.81-3.72-2.93-5.84-6.1-9.36-12.67a3.35,3.35,0,0,1,1.8-4.51A29.1,29.1,0,0,0,146,139.64c1.2-1.33,2-2.51,2.85-3.5a6.35,6.35,0,0,1,1.65-1.5,3.78,3.78,0,0,1,1.91-.65,4,4,0,0,1,2.45.8c6.17,4.84,9.07,6.6,16.67,9a3.33,3.33,0,0,1,2.05,4.2l-2.55,6.61h15.12l2.7-11.06a9.68,9.68,0,0,0-1.55-4.66,38.1,38.1,0,0,0-5.46-7.06c-4.55-4.77-10.58-9.16-14.36-10.71h0Z"/><path class="cls-1" d="M152.94,141.35c-.56.7-1.27,1.57-2.16,2.55a35.42,35.42,0,0,1-11.71,8.56c.46.83.85,1.5,1.25,2.15H164.2l2.2-5.81A47.78,47.78,0,0,1,152.94,141.35Z"/><path class="cls-1" d="M204.53,161h-58.2c3.93,2.77,7.8,4.11,16.47,9.31,0,0,0,0,0,0,4.13,2.4,6.79,5.55,7.86,9a11.72,11.72,0,0,1-1.3,9.77c-3.52,5.48-11.6,7.78-19.13,3.5-7.41-3.7-13.82-7-19.47-10.26v28.36a2.27,2.27,0,0,0,2.27,2.28h71.45a2.28,2.28,0,0,0,2.28-2.28V163.3A2.28,2.28,0,0,0,204.53,161Z"/><path class="cls-2" d="M150,15a135,135,0,0,1,95.46,230.46A135,135,0,0,1,54.54,54.54,134.11,134.11,0,0,1,150,15m0-15A150,150,0,1,0,300,150,150,150,0,0,0,150,0Z"/></g></g></svg>