<svg xmlns="http://www.w3.org/2000/svg" viewBox="0 0 300 300"><defs><style>.cls-1{fill:#3b7267;}</style></defs><g id="Layer_2" data-name="Layer 2"><g id="Governance_-_AGM" data-name="Governance - AGM"><path class="cls-1" d="M189.38,84.78H110.21A12.88,12.88,0,0,0,97.34,97.66V145.8a12.89,12.89,0,0,0,12.87,12.9H115a13.36,13.36,0,0,0-3.08,8.84,2.73,2.73,0,0,0,5.46,0c0-7.61,7.36-8.75,11.06-8.84h18.66v8.37a2.74,2.74,0,1,0,5.47,0V158.7h18.66c3.7.09,11.06,1.23,11.06,8.84a2.73,2.73,0,0,0,5.46,0,13.36,13.36,0,0,0-3.08-8.84h4.75a12.89,12.89,0,0,0,12.87-12.9V97.66A12.88,12.88,0,0,0,189.38,84.78Zm-.58,35.43a7.85,7.85,0,0,1-4,1.07A8.57,8.57,0,0,1,180.3,120l-10.11,8.86a8.23,8.23,0,0,1,.49,2.84,8.42,8.42,0,1,1-16.1-3.44l-10.12-13.59a8.4,8.4,0,0,1-8.44-.44l-12,13.78a8.41,8.41,0,1,1-11.48-5,7.63,7.63,0,0,1,3.5-.76,8.17,8.17,0,0,1,4.56,1.39l12-13.8a7.93,7.93,0,0,1-.44-2.63,8.42,8.42,0,1,1,16.84,0,8.57,8.57,0,0,1-.74,3.47l10.12,13.59a8.17,8.17,0,0,1,3.85-1,8.48,8.48,0,0,1,4.48,1.29l10.15-8.86a7.83,7.83,0,0,1-.52-2.84,8.42,8.42,0,0,1,16.84,0A8.33,8.33,0,0,1,188.8,120.21Z"/><path class="cls-1" d="M118.14,197.16h-8.8c-5.94,0-10.75,4.43-10.75,9.9v6.21a2.74,2.74,0,0,0,2.74,2.73h24.82a2.74,2.74,0,0,0,2.73-2.73v-6.21C128.88,201.59,124,197.16,118.14,197.16Z"/><ellipse class="cls-1" cx="149.63" cy="184.19" rx="9.9" ry="9.91"/><path class="cls-1" d="M154,197.16h-8.8c-5.93,0-10.74,4.43-10.74,9.9v6.21a2.74,2.74,0,0,0,2.73,2.73H162a2.74,2.74,0,0,0,2.74-2.73v-6.21C164.78,201.59,160,197.16,154,197.16Z"/><path class="cls-1" d="M189.93,197.16h-8.81c-5.9,0-10.74,4.43-10.74,9.9v6.21a2.74,2.74,0,0,0,2.73,2.73h24.83a2.72,2.72,0,0,0,2.73-2.73v-6.21C200.67,201.59,195.86,197.16,189.93,197.16Z"/><path class="cls-1" d="M195.45,184.18a9.91,9.91,0,1,0-9.93,9.92A9.92,9.92,0,0,0,195.45,184.18Z"/><path class="cls-1" d="M123.63,184.18a9.91,9.91,0,1,0-9.89,9.92A9.91,9.91,0,0,0,123.63,184.18Z"/><path class="cls-1" d="M150,15a135,135,0,0,1,95.46,230.46A135,135,0,0,1,54.54,54.54,134.11,134.11,0,0,1,150,15m0-15A150,150,0,1,0,300,150,150,150,0,0,0,150,0Z"/></g></g></svg>