<?xml version="1.0" encoding="utf-8"?>
<!-- Generator: Adobe Illustrator 24.0.0, SVG Export Plug-In . SVG Version: 6.00 Build 0)  -->
<svg version="1.1" id="Layer_1" xmlns="http://www.w3.org/2000/svg" xmlns:xlink="http://www.w3.org/1999/xlink" x="0px" y="0px"
	 viewBox="0 0 300 300" style="enable-background:new 0 0 300 300;" xml:space="preserve">
<style type="text/css">
	.st0{enable-background:new    ;}
	.st1{fill:#3B7267;}
</style>
<g id="Layer_2_1_">
	<g id="Recreation_-_Children">
		<g class="st0">
			<path class="st1" d="M70,149.3c0-16.2,9.1-27.6,24.9-27.6c6.5,0,11.9,2.2,15.8,5.5l-5.1,8.7c-2.9-2.7-5.9-4.2-10.6-4.2
				c-7.8,0-13.4,6.6-13.4,15.1c0,0.4,0,0.7,0.1,1.1c2.5-3.6,7.8-6.9,13.7-6.9c9.6,0,18.2,6,18.2,17.4c0,10.4-8.3,18.3-20.5,18.3
				C76.8,176.8,70,164.3,70,149.3z M102,158.9c0-5.6-4.8-8-9.8-8c-4,0-7.9,1.8-10.5,5c0.5,5.1,3.4,10.8,10.8,10.8
				C98.6,166.7,102,162.6,102,158.9z"/>
		</g>
		<g class="st0">
			<path class="st1" d="M125.9,160.8v-8.6h19.2v8.6H125.9z"/>
		</g>
		<g class="st0">
			<path class="st1" d="M164.6,175.9v-38.7l-8.9,9l-6.5-6.8l16.8-16.9h9.9v53.4H164.6z"/>
		</g>
		<g class="st0">
			<path class="st1" d="M188.4,175.9v-9c21.8-16.2,28.2-21.6,28.2-28.2c0-4.7-4.2-7-8.6-7c-6.1,0-10.7,2.4-14.3,6.2l-6.5-7.5
				c5.2-6,13.1-8.7,20.6-8.7c11.4,0,20.4,6.4,20.4,17c0,9.1-7.5,17-21.4,27.1h21.8v10H188.4z"/>
		</g>
		<path class="st1" d="M150,15c74.6,0,135,60.4,135,135c0,35.8-14.2,70.1-39.5,95.5c-52.7,52.7-138.2,52.7-190.9,0
			s-52.7-138.2,0-190.9C79.8,29.1,114.2,14.9,150,15 M150,0C67.2,0,0,67.2,0,150s67.2,150,150,150s150-67.2,150-150S232.8,0,150,0z"
			/>
	</g>
</g>
</svg>
