<?xml version="1.0" encoding="utf-8"?>
<!-- Generator: Adobe Illustrator 24.0.0, SVG Export Plug-In . SVG Version: 6.00 Build 0)  -->
<svg version="1.1" id="Layer_1" xmlns="http://www.w3.org/2000/svg" xmlns:xlink="http://www.w3.org/1999/xlink" x="0px" y="0px"
	 viewBox="0 0 300 300" style="enable-background:new 0 0 300 300;" xml:space="preserve">
<style type="text/css">
	.st0{enable-background:new    ;}
	.st1{fill:#3B7267;}
</style>
<g id="Layer_2_1_">
	<g id="Recreation_-_Youth">
		<g class="st0">
			<path class="st1" d="M73.8,175.9v-38.7l-8.9,9l-6.5-6.8l16.8-16.9h9.9v53.4H73.8z"/>
		</g>
		<g class="st0">
			<path class="st1" d="M93.1,168.3l6-7.6c3.6,3.8,9.4,6.1,14.6,6.1c6.5,0,10.1-2.8,10.1-6.8c0-4.2-3.3-6.2-10.7-6.2
				c-2.2,0-5.8,0.1-6.6,0.2v-10.2c1,0.1,4.6,0.1,6.6,0.1c5.9,0,9.9-1.8,9.9-5.7c0-4.2-4.4-6.3-9.9-6.3c-5.2,0-9.8,1.9-13.6,5.5
				l-5.7-7.1c4.3-4.9,11-8.5,20.4-8.5c12.5,0,20.2,5.6,20.2,14.5c0,6.7-5.8,11.1-11.7,12.2c5.4,0.6,12.5,4.8,12.5,12.8
				c0,9.2-8.2,15.7-21,15.7C104.4,176.8,97,173.1,93.1,168.3z"/>
		</g>
		<g class="st0">
			<path class="st1" d="M145.3,155.8v-8.6h19.2v8.6H145.3z"/>
		</g>
		<g class="st0">
			<path class="st1" d="M184,175.9v-38.7l-8.9,9l-6.5-6.8l16.8-16.9h9.9v53.4H184z"/>
		</g>
		<g class="st0">
			<path class="st1" d="M210.5,175.9l19.1-43.4h-26.9v-10h40.1v7.9L223,175.9H210.5z"/>
		</g>
		<path class="st1" d="M150,15c74.6,0,135,60.4,135,135c0,35.8-14.2,70.1-39.5,95.5c-52.7,52.7-138.2,52.7-190.9,0
			s-52.7-138.2,0-190.9C79.8,29.1,114.2,14.9,150,15 M150,0C67.2,0,0,67.2,0,150s67.2,150,150,150s150-67.2,150-150S232.8,0,150,0z"
			/>
	</g>
</g>
</svg>
