<svg xmlns="http://www.w3.org/2000/svg" viewBox="0 0 300 300"><defs><style>.cls-1{fill:#3b7267;}</style></defs><g id="Layer_2" data-name="Layer 2"><g id="Services_-_Sustainability" data-name="Services - Sustainability"><path class="cls-1" d="M120.52,117.45c-27.22,15.91-22.8,44.37-21.74,53.92,36.77-34.83,85-42.43,85-42.43S98.42,154.58,76.5,206c-1.76,4.06,8.14,9.37,10.43,4.59,6.72-14.32,23.51-26.87,23.51-26.87,9.37,9.73,40.84,12.91,57.81,1.06,22.45-15.91,33.23-36.41,55.68-67.52C226.41,113.74,157.64,95.89,120.52,117.45Z"/><path class="cls-1" d="M150,15a135,135,0,0,1,95.46,230.46A135,135,0,0,1,54.54,54.54,134.11,134.11,0,0,1,150,15m0-15A150,150,0,1,0,300,150,150,150,0,0,0,150,0Z"/></g></g></svg>