<svg xmlns="http://www.w3.org/2000/svg" viewBox="0 0 300 300"><defs><style>.cls-1{fill:#3b7267;}</style></defs><g id="Layer_2" data-name="Layer 2"><g id="Recreation_-_Fitness_Centres" data-name="Recreation - Fitness Centres"><path class="cls-1" d="M76.12,120.14v59.72a7.82,7.82,0,0,0,7.71,7.81V112.33A7.81,7.81,0,0,0,76.12,120.14Z"/><rect class="cls-1" x="113.78" y="140.79" width="72.43" height="18.43"/><path class="cls-1" d="M99.1,101.81h-.58a10.1,10.1,0,0,0-10.1,10.09v1.92h0v72.38h0v1.92a10.1,10.1,0,0,0,10.1,10.09h.58a10.1,10.1,0,0,0,10.1-10.09V111.9A10.1,10.1,0,0,0,99.1,101.81Z"/><path class="cls-1" d="M201.48,101.81h-.59A10.1,10.1,0,0,0,190.8,111.9v76.2a10.1,10.1,0,0,0,10.09,10.09h.59a10.09,10.09,0,0,0,10.09-10.09V111.9A10.09,10.09,0,0,0,201.48,101.81Z"/><path class="cls-1" d="M216.15,112.33v75.34a7.81,7.81,0,0,0,7.72-7.81V120.14A7.82,7.82,0,0,0,216.15,112.33Z"/><path class="cls-1" d="M63.49,150a11.41,11.41,0,0,0,5.4,9.7l2.81,1.77V138.53l-2.81,1.77A11.41,11.41,0,0,0,63.49,150Z"/><path class="cls-1" d="M231.11,140.3l-2.81-1.77v22.94l2.81-1.77a11.41,11.41,0,0,0,0-19.4Z"/><path class="cls-1" d="M150,15a135,135,0,0,1,95.46,230.46A135,135,0,0,1,54.54,54.54,134.11,134.11,0,0,1,150,15m0-15A150,150,0,1,0,300,150,150,150,0,0,0,150,0Z"/></g></g></svg>