<?xml version="1.0" encoding="utf-8"?>
<!-- Generator: Adobe Illustrator 24.0.0, SVG Export Plug-In . SVG Version: 6.00 Build 0)  -->
<svg version="1.1" id="Layer_1" xmlns="http://www.w3.org/2000/svg" xmlns:xlink="http://www.w3.org/1999/xlink" x="0px" y="0px"
	 viewBox="0 0 300 300" style="enable-background:new 0 0 300 300;" xml:space="preserve">
<style type="text/css">
	.st0{enable-background:new    ;}
	.st1{fill:#3B7267;}
</style>
<g id="Layer_2_1_">
	<g id="Recreation_-_Children_Inclusive_">
		<g class="st0">
			<path class="st1" d="M72,149.2c0-13.8,6.8-27.5,22.1-27.5c15.3,0,22.1,13.8,22.1,27.5c0,13.8-6.8,27.6-22.1,27.6
				C78.8,176.8,72,163,72,149.2z M104.5,149.2c0-9.8-2.8-17.4-10.5-17.4c-7.6,0-10.5,7.6-10.5,17.4c0,9.8,2.9,17.5,10.5,17.5
				C101.7,166.7,104.5,159.1,104.5,149.2z"/>
		</g>
		<g class="st0">
			<path class="st1" d="M126.2,156.5v-8.6h19.2v8.6H126.2z"/>
		</g>
		<g class="st0">
			<path class="st1" d="M164.9,175.9v-38.7l-8.9,9l-6.5-6.8l16.8-16.9h9.9v53.4H164.9z"/>
		</g>
		<g class="st0">
			<path class="st1" d="M186.5,175.9v-9c21.8-16.2,28.2-21.6,28.2-28.2c0-4.7-4.2-7-8.6-7c-6.1,0-10.7,2.4-14.3,6.2l-6.5-7.5
				c5.2-6,13.1-8.7,20.6-8.7c11.4,0,20.4,6.4,20.4,17c0,9.1-7.5,17-21.4,27.1h21.8v10H186.5z"/>
		</g>
		<path class="st1" d="M150,15c74.6,0,135,60.4,135,135c0,35.8-14.2,70.1-39.5,95.5c-52.7,52.7-138.2,52.7-190.9,0
			s-52.7-138.2,0-190.9C79.8,29.1,114.2,14.9,150,15 M150,0C67.2,0,0,67.2,0,150s67.2,150,150,150s150-67.2,150-150S232.8,0,150,0z"
			/>
	</g>
</g>
</svg>
