<svg xmlns="http://www.w3.org/2000/svg" viewBox="0 0 300 300"><defs><style>.cls-1{fill:#3b7267;}</style></defs><g id="Layer_2" data-name="Layer 2"><g id="Governance_-_Annual_Reports" data-name="Governance - Annual Reports"><path class="cls-1" d="M200.77,122.18H174.93a8.51,8.51,0,0,1-8.5-8.5V84.83a8.43,8.43,0,0,1,.5-2.83H99.22a2.84,2.84,0,0,0-2.83,2.83V215.17A2.84,2.84,0,0,0,99.22,218H200.77a2.83,2.83,0,0,0,2.83-2.83v-93.5A8.44,8.44,0,0,1,200.77,122.18ZM114.88,99.77h36.81a2.84,2.84,0,1,1,0,5.67H114.88a2.84,2.84,0,1,1,0-5.67ZM112,119.53a2.84,2.84,0,0,1,2.84-2.83h19.88a2.84,2.84,0,1,1,0,5.67H114.88A2.84,2.84,0,0,1,112,119.53Zm64,45.85a10.35,10.35,0,0,1-5-1.27l-17.6,16.21a9.88,9.88,0,0,1,.57,3.31,10.08,10.08,0,1,1-17.85-6.4L128,158.44a11,11,0,0,1-2.78.34,11.75,11.75,0,1,1,7.79-3L140.9,174a10.28,10.28,0,0,1,3-.46,9.88,9.88,0,0,1,6.18,2.16L167,160.17a10.34,10.34,0,0,1-1.47-5.32A10.53,10.53,0,1,1,176,165.38Z"/><path class="cls-1" d="M174.93,116.51h25.84a2.83,2.83,0,0,0,2.6-1.67,2.86,2.86,0,0,0-.48-3.06L177.05,82.94a2.86,2.86,0,0,0-5,1.89v28.85A2.85,2.85,0,0,0,174.93,116.51Z"/><path class="cls-1" d="M150,15a135,135,0,0,1,95.46,230.46A135,135,0,0,1,54.54,54.54,134.11,134.11,0,0,1,150,15m0-15A150,150,0,1,0,300,150,150,150,0,0,0,150,0Z"/></g></g></svg>