<svg xmlns="http://www.w3.org/2000/svg" viewBox="0 0 300 300"><defs><style>.cls-1,.cls-2{fill:#3b7267;}.cls-1{fill-rule:evenodd;}</style></defs><g id="Layer_2" data-name="Layer 2"><g id="Services_-_Parking" data-name="Services - Parking"><path class="cls-1" d="M92.1,135.17c3.56-7.55,6.88-15.54,11.1-24.2,2.22-4,5.11-7.76,9.77-8.21h73c4.88.45,7.54,4.22,10,8.21,4.22,8.66,7.55,16.65,11.1,24.2ZM113,91c-7.77,0-12.65,2.89-19.09,12L83,127.4H66.36c-2.44,0-7.1,13.54,10.21,14L70.8,155.59c0,17.75.22,35.73.22,53.48a6.53,6.53,0,0,0,6.66,6.66h22.41a6.53,6.53,0,0,0,6.66-6.66V194.2H192.2v14.87a6.68,6.68,0,0,0,6.66,6.66H221.5a6.54,6.54,0,0,0,6.66-6.66c0-17.75.22-35.73.22-53.48l-6-14.21c17.54-.44,12.66-14,10.21-14H216L205.3,103C198.64,93.89,194,91,186,91Zm90.77,65.7a10.88,10.88,0,1,0,10.88,10.87A10.89,10.89,0,0,0,203.74,156.7Zm-108.53,0a10.88,10.88,0,1,1-10.87,10.87A10.9,10.9,0,0,1,95.21,156.7Z"/><path class="cls-2" d="M150,15a135,135,0,0,1,95.46,230.46A135,135,0,0,1,54.54,54.54,134.11,134.11,0,0,1,150,15m0-15A150,150,0,1,0,300,150,150,150,0,0,0,150,0Z"/></g></g></svg>