<?xml version="1.0" encoding="utf-8"?>
<!-- Generator: Adobe Illustrator 24.0.0, SVG Export Plug-In . SVG Version: 6.00 Build 0)  -->
<svg version="1.1" id="Layer_1" xmlns="http://www.w3.org/2000/svg" xmlns:xlink="http://www.w3.org/1999/xlink" x="0px" y="0px"
	 viewBox="0 0 300 300" style="enable-background:new 0 0 300 300;" xml:space="preserve">
<style type="text/css">
	.st0{fill:#3B7267;}
</style>
<g id="Layer_2_1_">
	<g id="Services_-_Childcare">
		<circle class="st0" cx="114.3" cy="112.8" r="18.9"/>
		<path class="st0" d="M228.7,133.1c2.5-2.5,2.5-6.6,0-9.1c-2.5-2.5-6.6-2.5-9.1,0l0,0l-16.7,16.7h-31l-16.7-16.7
			c-2.3-2.5-6.2-2.7-8.7-0.4c-0.1,0.1-0.3,0.3-0.4,0.4l-16.9,16.7H98.3l-16.7-16.7c-2.5-2.5-6.6-2.5-9.1,0c-2.5,2.5-2.5,6.6,0,9.1
			l24,24v53.6c0.1,3.5,3.1,6.3,6.7,6.2c3.3-0.1,6-2.8,6.2-6.2v-20.8c-0.1-2.4,1.7-4.4,4.1-4.5c2.4-0.1,4.4,1.7,4.5,4.1
			c0,0.1,0,0.3,0,0.4v20.8c0.1,3.5,3.1,6.3,6.7,6.2c3.3-0.1,6-2.8,6.2-6.2v-53.9l19.7-18.9l19.7,19.2L159.3,195h10.8v15.7
			c0.1,3.5,3.1,6.3,6.7,6.2c3.3-0.1,6-2.8,6.2-6.2V195h8.5v15.7c0.1,3.5,3.1,6.3,6.7,6.2c3.3-0.1,6-2.8,6.2-6.2V195h10.8l-10.8-37.8
			L228.7,133.1z"/>
		<circle class="st0" cx="187.4" cy="112.8" r="18.9"/>
		<path class="st0" d="M150,15c74.6,0,135,60.4,135,135c0,35.8-14.2,70.1-39.5,95.5c-52.7,52.7-138.2,52.7-190.9,0
			s-52.7-138.2,0-190.9C79.8,29.1,114.2,14.9,150,15 M150,0C67.2,0,0,67.2,0,150s67.2,150,150,150s150-67.2,150-150S232.8,0,150,0z"
			/>
	</g>
</g>
</svg>
