<?xml version="1.0" encoding="utf-8"?>
<!-- Generator: Adobe Illustrator 24.0.0, SVG Export Plug-In . SVG Version: 6.00 Build 0)  -->
<svg version="1.1" id="Layer_1" xmlns="http://www.w3.org/2000/svg" xmlns:xlink="http://www.w3.org/1999/xlink" x="0px" y="0px"
	 viewBox="0 0 300 300" style="enable-background:new 0 0 300 300;" xml:space="preserve">
<style type="text/css">
	.st0{enable-background:new    ;}
	.st1{fill:#3B7267;}
</style>
<g id="Layer_2_1_">
	<g id="Recreation_-_Adults">
		<g class="st0">
			<path class="st1" d="M57.1,175.9v-38.7l-8.9,9l-6.5-6.8l16.8-16.9h9.9v53.4H57.1z"/>
		</g>
		<g class="st0">
			<path class="st1" d="M79.2,162c0-6.5,5-11.4,11.4-13.7c-5.9-2.1-10.6-5.9-10.6-12.6c0-10.1,10.6-14.1,20.6-14.1
				c9.8,0,20.6,4,20.6,14.1c0,6.6-4.7,10.5-10.6,12.6c6.3,2.2,11.4,7.2,11.4,13.7c0,9.9-10.2,14.8-21.4,14.8S79.2,171.9,79.2,162z
				 M110.6,160.4c0-4.4-6.6-6.5-9.9-7c-3.4,0.5-9.9,2.6-9.9,7c0,3.8,4.3,6.3,9.9,6.3C106.1,166.7,110.6,164.3,110.6,160.4z
				 M109.6,137.7c0-3.8-3.8-5.9-9-5.9c-5.3,0-9,2.2-9,5.9c0,3.9,5.8,5.6,9,6.2C103.9,143.3,109.6,141.6,109.6,137.7z"/>
		</g>
		<g class="st0">
			<path class="st1" d="M132.7,155.8v-8.6h19.2v8.6H132.7z"/>
		</g>
		<g class="st0">
			<path class="st1" d="M163.1,168.8l6.3-7.9c3.6,3.8,8.6,5.8,14.2,5.8c6.3,0,9.9-3.6,9.9-7.9c0-4.7-3.5-7.9-9.6-7.9
				c-4.4,0-8,1.3-11.2,4.3l-7.9-2.2v-30.6h36.6v10h-25.3v13c2.6-2.6,6.9-4.5,11.8-4.5c9,0,17.1,6.5,17.1,17.3
				c0,11.3-8.5,18.5-21.4,18.5C174.3,176.8,167.6,173.8,163.1,168.8z"/>
		</g>
		<g class="st0">
			<path class="st1" d="M237.6,175.9v-11h-25.5v-9l21.2-33.4H249v32.3h6.9v10H249v11H237.6z M237.6,132.6l-14.4,22.2h14.4V132.6z"/>
		</g>
		<path class="st1" d="M150,15c74.6,0,135,60.4,135,135c0,35.8-14.2,70.1-39.5,95.5c-52.7,52.7-138.2,52.7-190.9,0
			s-52.7-138.2,0-190.9C79.8,29.1,114.2,14.9,150,15 M150,0C67.2,0,0,67.2,0,150s67.2,150,150,150s150-67.2,150-150S232.8,0,150,0z"
			/>
	</g>
</g>
</svg>
