<svg xmlns="http://www.w3.org/2000/svg" viewBox="0 0 300 300"><defs><style>.cls-1{fill:#3b7267;}</style></defs><g id="Layer_2" data-name="Layer 2"><g id="Services_-_Public_Safety" data-name="Services - Public Safety"><path class="cls-1" d="M206,102.42a76.15,76.15,0,0,1-47.78-22L154.94,77a7.15,7.15,0,0,0-9.86,0l-3.28,3.45a76.15,76.15,0,0,1-47.79,22,7,7,0,0,0-6.4,6.9v19.87a116.36,116.36,0,0,0,59,101A6.3,6.3,0,0,0,150,231a8.88,8.88,0,0,0,3.45-.82,116.36,116.36,0,0,0,58.95-101V109.32A7,7,0,0,0,206,102.42ZM180.06,139.7,149.35,173a8,8,0,0,1-4.92,2.3h-.17a6.92,6.92,0,0,1-4.92-2l-17.25-17.57a6.85,6.85,0,0,1,9.69-9.69l12.32,12.32,25.78-28.08a7,7,0,0,1,9.69-.49A7.16,7.16,0,0,1,180.06,139.7Z"/><path class="cls-1" d="M150,15a135,135,0,0,1,95.46,230.46A135,135,0,0,1,54.54,54.54,134.11,134.11,0,0,1,150,15m0-15A150,150,0,1,0,300,150,150,150,0,0,0,150,0Z"/></g></g></svg>