<svg xmlns="http://www.w3.org/2000/svg" viewBox="0 0 300 300"><defs><style>.cls-1{fill:#3b7267;}</style></defs><g id="Layer_2" data-name="Layer 2"><g id="Recreation_-_Campus_Activities" data-name="Recreation - Campus Activities"><path class="cls-1" d="M80,168.37a4.45,4.45,0,0,0,.29,6L92.5,186.56a4.44,4.44,0,0,0,6.26,0l1.69-1.69a10.51,10.51,0,0,1,14.87,14.87l-1.69,1.69a4.45,4.45,0,0,0,0,6.28h0l12.21,12.21a4.45,4.45,0,0,0,6.28,0h0l26.55-26.55-51.87-51.87L80.27,168.07l-.3.3Zm33.13-33.13L165,187.12l54.72-54.73a4.44,4.44,0,0,0,0-6.28s0,0,0,0l-12.21-12.21a4.44,4.44,0,0,0-6.28,0l0,0-1.69,1.69a10.52,10.52,0,0,1-14.87-14.88L186.31,99a4.44,4.44,0,0,0,0-6.28L174.1,80.5a4.44,4.44,0,0,0-6.28,0Zm25.06,5.28,19.26-19.25c4.18-4.19,10.47,2.09,6.28,6.28L144.45,146.8C140.26,151,134,144.71,138.16,140.52Zm15.23,15.23,19.25-19.26c4.19-4.18,10.47,2.1,6.28,6.28L159.67,162C155.48,166.21,149.2,159.93,153.39,155.75Z"/><path class="cls-1" d="M150,15a135,135,0,0,1,95.46,230.46A135,135,0,0,1,54.54,54.54,134.11,134.11,0,0,1,150,15m0-15A150,150,0,1,0,300,150,150,150,0,0,0,150,0Z"/></g></g></svg>