<svg xmlns="http://www.w3.org/2000/svg" viewBox="0 0 300 300"><defs><style>.cls-1{fill:#3b7267;}</style></defs><g id="Layer_2" data-name="Layer 2"><g id="Governance_-_Finance" data-name="Governance - Finance"><path class="cls-1" d="M97.05,153.53v5.33a2.64,2.64,0,0,0,2.66,2.67H106a2.65,2.65,0,0,0,2.67-2.67v-5.17A20.56,20.56,0,0,0,120,147.88a16.8,16.8,0,0,0,4.71-12.24,31.77,31.77,0,0,0-.31-3.76,18,18,0,0,0-.79-3.14,12.46,12.46,0,0,0-1.57-2.82,25,25,0,0,0-1.88-2.2,11.28,11.28,0,0,0-2.51-1.88c-.94-.63-1.88-1.1-2.67-1.57a32.14,32.14,0,0,0-3.14-1.42c-1.25-.47-2.35-.78-3.45-1.25-1.25-.31-2.35-.63-3.92-1.1a22.55,22.55,0,0,1-6.59-2.82A3.09,3.09,0,0,1,96.26,111a3,3,0,0,1,1.26-2.51,8.17,8.17,0,0,1,4.39-1.1,20.64,20.64,0,0,1,11.61,3.92,2.63,2.63,0,0,0,3.45-.47l5.18-6.59a2.36,2.36,0,0,0,.47-2,3.79,3.79,0,0,0-.94-1.72,31.23,31.23,0,0,0-6-3.45,38.84,38.84,0,0,0-7.22-2.51V88.26A2.52,2.52,0,0,0,106,85.59H99.56a2.64,2.64,0,0,0-2.67,2.67v5.8c-4.71.79-8.63,2.67-11.3,5.65A17.53,17.53,0,0,0,81,111.79a23,23,0,0,0,.32,3.3,16.22,16.22,0,0,0,.78,3,11.79,11.79,0,0,0,1.26,2.51,11.62,11.62,0,0,0,1.72,2.2A19.44,19.44,0,0,0,87,124.5a8.82,8.82,0,0,0,2.36,1.57,19,19,0,0,0,2.51,1.26,28.41,28.41,0,0,0,2.82,1.1c1.1.31,1.88.62,2.83.94a23.86,23.86,0,0,0,3,.94c1.25.31,2.19.63,3.14.94l2.35.94a18.8,18.8,0,0,1,1.72.94,2.73,2.73,0,0,1,1,.94,1.45,1.45,0,0,1,.47,1.1,4.07,4.07,0,0,1,.15,1.41,3.66,3.66,0,0,1-1.41,3c-2.35,1.72-7.06,1.57-11.77-.32A21.44,21.44,0,0,1,90,135.33a2.73,2.73,0,0,0-1.88-.63,2.17,2.17,0,0,0-1.72.94L81,142.08a2.66,2.66,0,0,0,.16,3.61A31,31,0,0,0,97.05,153.53Z"/><path class="cls-1" d="M217.55,200.6H205.31V120.27A3.22,3.22,0,0,0,202,117H181.46a3.32,3.32,0,0,0-3.3,3.3V200.6H163.42v-53a3.23,3.23,0,0,0-3.3-3.3h-20.4a3.22,3.22,0,0,0-3.29,3.3v52.87H121.68V175a3.22,3.22,0,0,0-3.3-3.3H97.83a3.21,3.21,0,0,0-3.29,3.3V200.6H82.3a6.91,6.91,0,1,0,0,13.81H217.7a7,7,0,0,0,6.91-6.91A7.1,7.1,0,0,0,217.55,200.6Z"/><path class="cls-1" d="M150,15a135,135,0,0,1,95.46,230.46A135,135,0,0,1,54.54,54.54,134.11,134.11,0,0,1,150,15m0-15A150,150,0,1,0,300,150,150,150,0,0,0,150,0Z"/></g></g></svg>