<svg xmlns="http://www.w3.org/2000/svg" viewBox="0 0 300 300"><defs><style>.cls-1{fill:#3b7267;}</style></defs><g id="Layer_2" data-name="Layer 2"><g id="About_-_Governance" data-name="About - Governance"><path class="cls-1" d="M214.94,133.89H204.65c-4.29-20.36-23.69-35.21-47.81-37.33V87.74h19.65l-5.12-8.55,5.12-8.54H144.87v25.9c-24.12,2.13-43.52,17-47.81,37.34H86.77a2.58,2.58,0,0,0-2.58,2.57v6.82a2.58,2.58,0,0,0,2.58,2.57H214.94a2.57,2.57,0,0,0,2.57-2.57v-6.82A2.57,2.57,0,0,0,214.94,133.89Z"/><path class="cls-1" d="M217.51,207.39V198a2.56,2.56,0,0,0-2.55-2.56h-9.41v-41H190.17v41H174.78v-41H159.4v41H144v-41H128.63v41H111.54v-41H96.16v41H86.75A2.56,2.56,0,0,0,84.19,198v9.41H76.5a2.55,2.55,0,0,0-2.56,2.55v6.85a2.55,2.55,0,0,0,2.56,2.56h147a2.55,2.55,0,0,0,2.56-2.56v-6.85a2.55,2.55,0,0,0-2.56-2.55Z"/><path class="cls-1" d="M150,15a135,135,0,0,1,95.46,230.46A135,135,0,0,1,54.54,54.54,134.11,134.11,0,0,1,150,15m0-15A150,150,0,1,0,300,150,150,150,0,0,0,150,0Z"/></g></g></svg>