<svg xmlns="http://www.w3.org/2000/svg" viewBox="0 0 300 300"><defs><style>.cls-1{fill:#3b7267;}</style></defs><g id="Layer_2" data-name="Layer 2"><g id="About_-_Staff" data-name="About - Staff"><path class="cls-1" d="M129.54,125.71A20.9,20.9,0,0,1,150.25,105a20.72,20.72,0,1,1,0,41.43h0A20.72,20.72,0,0,1,129.54,125.71Z"/><path class="cls-1" d="M192.76,181.94v16.14a2.7,2.7,0,0,1-2.69,2.69H110.71a2.7,2.7,0,0,1-2.69-2.69V181.94c0-27.17,31.47-36.05,34.43-30.4l7.8,15.33,7.8-15.33a3.1,3.1,0,0,1,2.42-1.62h.27a31.32,31.32,0,0,1,22.6,9.42A32.45,32.45,0,0,1,192.76,181.94Z"/><path class="cls-1" d="M79,132.78a16.15,16.15,0,1,1,16.15,16.14A16,16,0,0,1,79,132.78Z"/><path class="cls-1" d="M114.74,154.23c-15.87,14.79-11.56,31.2-12.37,36.05H65.25a2.7,2.7,0,0,1-2.69-2.69V175.48A24.56,24.56,0,0,1,87,151a2.53,2.53,0,0,1,2.42,1.35l5.38,10.22L100,152.35a2.82,2.82,0,0,1,2.42-1.35h0A30.06,30.06,0,0,1,114.74,154.23Z"/><path class="cls-1" d="M189.26,132.78a16.14,16.14,0,1,1,32.28,0,16,16,0,0,1-16.14,16.14A16.18,16.18,0,0,1,189.26,132.78Z"/><path class="cls-1" d="M237.68,187.85a2.54,2.54,0,0,1-2.69,2.69H198.14v-8.6a36.21,36.21,0,0,0-11-26.37l-1.35-1.34a25.76,25.76,0,0,1,11.84-3,2.36,2.36,0,0,1,2.42,1.61l5.38,10.23c4.84-8.88,4.84-11.84,7.53-11.84a24.16,24.16,0,0,1,17.49,7.26C240.64,168.49,236.87,180.32,237.68,187.85Z"/><path class="cls-1" d="M150,15a135,135,0,0,1,95.46,230.46A135,135,0,0,1,54.54,54.54,134.11,134.11,0,0,1,150,15m0-15A150,150,0,1,0,300,150,150,150,0,0,0,150,0Z"/></g></g></svg>