<svg xmlns="http://www.w3.org/2000/svg" width="22.803" height="19.895" viewBox="0 0 22.803 19.895"><defs><style>.a{fill:#fff;}</style></defs><g transform="translate(-1054 -34)"><g transform="translate(1055.472 34.008)"><g transform="translate(3.881 -0.008)"><g transform="translate(0)"><path class="a" d="M8.724,19.887a9.781,9.781,0,0,1-7.233-3.17,1,1,0,0,1,1.474-1.364,7.783,7.783,0,0,0,5.76,2.524A7.939,7.939,0,0,0,8.724,2,7.778,7.778,0,0,0,2.976,4.514a1,1,0,0,1-1.47-1.37A9.776,9.776,0,0,1,8.724-.008a9.947,9.947,0,1,1,0,19.895Z" transform="translate(-1.223 0.008)"/></g></g><path class="a" d="M6.02,6.115H-.727a.745.745,0,0,1-.745-.745.745.745,0,0,1,.745-.745H6.02a.745.745,0,0,1,0,1.49Z" transform="translate(0 4.569)"/><path class="a" d="M1.827,9.675a.744.744,0,0,1-.582-1.206L2.754,6.551,1.245,4.632a.744.744,0,1,1,1.168-.922l2.238,2.84L2.413,9.393A.742.742,0,0,1,1.827,9.675Z" transform="translate(2.52 3.388)"/><g transform="translate(7.962 5.78)"><circle class="a" cx="2.164" cy="2.164" r="2.164" transform="translate(1.334)"/><path class="a" d="M1.243,0H5.754A1.243,1.243,0,0,1,7,1.243V3.62a0,0,0,0,1,0,0H0a0,0,0,0,1,0,0V1.243A1.243,1.243,0,0,1,1.243,0Z" transform="translate(0 4.696)"/></g></g></g></svg>