<?xml version="1.0" encoding="utf-8"?>
<!-- Generator: Adobe Illustrator 24.0.3, SVG Export Plug-In . SVG Version: 6.00 Build 0)  -->
<svg version="1.1" id="Layer_1" xmlns="http://www.w3.org/2000/svg" xmlns:xlink="http://www.w3.org/1999/xlink" x="0px" y="0px"
	 viewBox="0 0 1600 900" style="enable-background:new 0 0 1600 900;" xml:space="preserve">
<style type="text/css">
	.st0{fill:#FFFFFF;}
</style>
<title>UNA-blank-image-horizontal</title>
<polygon class="st0" points="637.8,471.3 687,471.3 662.5,403.2 "/>
<path class="st0" d="M239.8,339.3v221.4h537.9V339.3H239.8z M409.6,464.8c0,36.9-21.1,62-66,62c-45.4,0-66.5-25.4-66.5-61.8v-89.2
	h32v88.1c0,20.7,11.3,34.9,34.5,34.9c22.7,0,34-14.2,34-34.9v-88.1h32L409.6,464.8z M571.8,524.2h-30.5l-70.7-99.6v99.6H439V375.9
	h32.5l68.7,96.1v-96.1h31.6L571.8,524.2z M705,524.2l-9.3-25.6h-66.3l-9.4,25.6h-34.7l57.4-148.3h39.6l57.2,148.3H705z"/>
<path class="st0" d="M818.3,390.3v-22.1h4.5v22c0,6.6,3.6,10.8,10.2,10.8s10.2-4.2,10.2-10.8v-22h4.5v22c0,9-4.9,14.7-14.7,14.7
	S818.3,399.1,818.3,390.3z"/>
<path class="st0" d="M885.8,404.3l-21-28.8v28.8h-4.5v-36.1h4.6l20.7,28.2v-28.2h4.5v36.1H885.8z"/>
<path class="st0" d="M902.6,404.3v-36.1h4.5v36.1H902.6z"/>
<path class="st0" d="M930.3,404.3l-14.5-36.1h5.2l12.2,31.1l12.2-31.1h5.1l-14.5,36.1H930.3z"/>
<path class="st0" d="M959.2,404.3v-36.1h23.6v4h-19.1v11.6h18.8v4h-18.8v12.4h19.1v4H959.2z"/>
<path class="st0" d="M1014.9,404.3l-9.2-14.3h-7.2v14.3H994v-36.1h14.5c6.6,0,11.3,4.2,11.3,10.9c0,6.5-4.4,10.1-9.3,10.5l9.7,14.7
	L1014.9,404.3z M1015.2,379.1c0-4.1-2.9-6.9-7.2-6.9h-9.5V386h9.5C1012.2,386,1015.2,383.1,1015.2,379.1z"/>
<path class="st0" d="M1028.8,399.2l2.6-3.4c2.9,3.3,7,5.1,11.4,5.1c6.4,0,8.5-3.5,8.5-6.2c0-9.3-21.4-4.2-21.4-17
	c0-5.9,5.3-10,12.4-10c5.5,0,9.8,1.8,12.8,5l-2.7,3.3c-2.7-2.9-6.5-4.4-10.4-4.3c-4.3,0-7.4,2.3-7.4,5.7c0,8.1,21.4,3.5,21.4,16.9
	c0,5.2-3.6,10.6-13.3,10.6C1036.3,404.9,1031.8,402.6,1028.8,399.2z"/>
<path class="st0" d="M1066.7,404.3v-36.1h4.5v36.1H1066.7z"/>
<path class="st0" d="M1092.6,404.3v-32.1h-11.4v-4h27.4v4h-11.5v32.1H1092.6z"/>
<path class="st0" d="M1129,404.3V389l-14.2-20.8h5.2l11.2,16.8l11.2-16.8h5.2l-14.2,20.8v15.2L1129,404.3z"/>
<path class="st0" d="M843.9,464.8l-21-28.8v28.8h-4.5v-36.1h4.6l20.7,28.2v-28.2h4.5v36.1H843.9z"/>
<path class="st0" d="M860.7,464.8v-36.1h23.6v4h-19.1v11.6h18.8v4h-18.8v12.4h19.1v4H860.7z"/>
<path class="st0" d="M895.5,464.8v-36.1h4.5v36.1H895.5z"/>
<path class="st0" d="M911,446.8c0-11.2,8.3-18.7,18.5-18.7c5.5-0.1,10.7,2.4,14,6.8l-3.5,2.2c-2.5-3.2-6.4-5-10.4-5
	c-7.9,0-13.9,6-13.9,14.6s6,14.7,13.9,14.7c3.6,0,7.1-1.4,9.7-3.9v-7.4h-12.4v-4h16.9v13c-3.6,4-8.8,6.3-14.2,6.2
	C919.3,465.5,911,458,911,446.8z"/>
<path class="st0" d="M980.7,464.8v-16.5h-21.1v16.5h-4.5v-36.1h4.5v15.5h21.1v-15.5h4.5v36.1H980.7z"/>
<path class="st0" d="M997.6,464.8v-36.1h16.1c6.3,0,10.1,3.8,10.1,9.2c0.1,3.9-2.5,7.4-6.3,8.3c3.8,0.6,7,4.5,7,8.9
	c0,5.8-3.8,9.7-10.4,9.7L997.6,464.8z M1019.2,438.6c0-3.2-2.2-5.8-6.2-5.8h-10.8v11.6h10.8C1017,444.4,1019.2,441.9,1019.2,438.6
	L1019.2,438.6z M1019.9,454.6c0-3.3-2.3-6.2-6.7-6.2h-11v12.5h11C1017.4,460.8,1019.9,458.4,1019.9,454.6L1019.9,454.6z"/>
<path class="st0" d="M1034.2,446.8c0-10.6,7.2-18.7,17.9-18.7s17.9,8,17.9,18.7s-7.2,18.7-17.9,18.7S1034.2,457.5,1034.2,446.8z
	 M1065.4,446.8c0-8.4-5.2-14.6-13.2-14.6s-13.2,6.2-13.2,14.6s5.1,14.7,13.2,14.7S1065.4,455.2,1065.4,446.8z"/>
<path class="st0" d="M1081.1,450.8v-22.1h4.5v22c0,6.6,3.6,10.8,10.2,10.8s10.2-4.2,10.2-10.8v-22h4.5v22c0,9-4.9,14.7-14.7,14.7
	S1081.1,459.7,1081.1,450.8z"/>
<path class="st0" d="M1143.9,464.8l-9.2-14.3h-7.2v14.3h-4.5v-36.1h14.5c6.6,0,11.3,4.2,11.3,10.9c0,6.5-4.4,10.1-9.4,10.5l9.7,14.7
	H1143.9z M1144.2,439.6c0-4.1-2.9-6.9-7.2-6.9h-9.5v13.8h9.5C1141.2,446.5,1144.2,443.6,1144.2,439.6L1144.2,439.6z"/>
<path class="st0" d="M1185.5,464.8v-16.5h-21.1v16.5h-4.4v-36.1h4.5v15.5h21.1v-15.5h4.4v36.1H1185.5z"/>
<path class="st0" d="M1201,446.8c0-10.6,7.2-18.7,17.9-18.7s17.9,8,17.9,18.7s-7.2,18.7-17.9,18.7S1201,457.5,1201,446.8z
	 M1232.2,446.8c0-8.4-5.2-14.6-13.2-14.6s-13.2,6.2-13.2,14.6s5.1,14.7,13.2,14.7S1232.2,455.2,1232.2,446.8L1232.2,446.8z"/>
<path class="st0" d="M1246.5,446.8c0-10.6,7.2-18.7,17.9-18.7s17.9,8,17.9,18.7s-7.2,18.7-17.9,18.7S1246.5,457.5,1246.5,446.8z
	 M1277.6,446.8c0-8.4-5.2-14.6-13.2-14.6s-13.2,6.2-13.2,14.6s5.1,14.7,13.2,14.7S1277.6,455.2,1277.6,446.8z"/>
<path class="st0" d="M1293.3,464.8v-36.1h12.3c11.2,0,18.5,7.8,18.5,18.1s-7.3,18-18.5,18L1293.3,464.8z M1319.5,446.8
	c0-7.8-4.9-14.1-13.8-14.1h-7.8v28.1h7.8C1314.4,460.8,1319.5,454.5,1319.5,446.8L1319.5,446.8z"/>
<path class="st0" d="M1333.1,459.7l2.7-3.4c2.9,3.3,7,5.1,11.4,5.1c6.4,0,8.5-3.5,8.5-6.2c0-9.3-21.4-4.2-21.4-17
	c0-6,5.3-10,12.4-10c5.5,0,9.8,1.8,12.8,5l-2.7,3.3c-2.7-2.9-6.5-4.4-10.4-4.3c-4.3,0-7.4,2.3-7.4,5.7c0,8.1,21.4,3.5,21.4,16.9
	c0,5.2-3.6,10.6-13.3,10.6C1340.7,465.5,1336.1,463.1,1333.1,459.7z"/>
<path class="st0" d="M844.1,525.3l-3.2-8h-18l-3.2,8h-5.1l14.5-36.1h5.6l14.5,36.1H844.1z M831.9,493.9l-7.7,19.4h15.3L831.9,493.9z
	"/>
<path class="st0" d="M855,520.2l2.7-3.4c2.9,3.3,7,5.2,11.4,5.2c6.4,0,8.5-3.5,8.5-6.2c0-9.3-21.4-4.2-21.4-17c0-6,5.3-10,12.4-10
	c5.5,0,9.8,1.8,12.8,5l-2.7,3.3c-2.7-2.9-6.5-4.4-10.4-4.3c-4.3,0-7.4,2.3-7.4,5.7c0,8.1,21.4,3.5,21.4,16.9
	c0,5.2-3.6,10.6-13.3,10.6C862.6,526,858,523.6,855,520.2z"/>
<path class="st0" d="M890.8,520.2l2.7-3.4c2.9,3.3,7,5.2,11.4,5.2c6.4,0,8.5-3.5,8.5-6.2c0-9.3-21.4-4.2-21.4-17c0-6,5.3-10,12.4-10
	c5.5,0,9.8,1.8,12.8,5l-2.7,3.3c-2.7-2.9-6.5-4.5-10.4-4.4c-4.3,0-7.4,2.3-7.4,5.7c0,8.1,21.4,3.5,21.4,16.9
	c0,5.2-3.6,10.6-13.3,10.6C898.4,526,893.8,523.6,890.8,520.2z"/>
<path class="st0" d="M927.2,507.3c0-10.7,7.2-18.7,17.9-18.7s17.9,8,17.9,18.7c0,10.7-7.2,18.7-17.9,18.7S927.2,518,927.2,507.3z
	 M958.4,507.3c0-8.4-5.2-14.7-13.2-14.7s-13.2,6.2-13.2,14.7S937,522,945.1,522S958.4,515.7,958.4,507.3z"/>
<path class="st0" d="M972.7,507.3c0-11.1,8.2-18.7,18.5-18.7c5.5-0.1,10.6,2.6,13.7,7.1l-3.8,2.1c-2.3-3.3-5.9-5.2-9.9-5.2
	c-7.9,0-13.9,6.1-13.9,14.7c0,8.6,6,14.7,13.9,14.7c4,0,7.7-2,9.9-5.2l3.8,2.1c-3.1,4.6-8.2,7.3-13.7,7.2
	C980.8,526,972.7,518.4,972.7,507.3z"/>
<path class="st0" d="M1014.7,525.3v-36.1h4.5v36.1H1014.7z"/>
<path class="st0" d="M1057.4,525.3l-3.2-8h-18l-3.2,8h-5.1l14.5-36.1h5.5l14.6,36.1H1057.4z M1045.3,493.9l-7.7,19.4h15.3
	L1045.3,493.9z"/>
<path class="st0" d="M1076.6,525.3v-32.1h-11.4v-4h27.4v4h-11.5v32.1H1076.6z"/>
<path class="st0" d="M1102.6,525.3v-36.1h4.5v36.1H1102.6z"/>
<path class="st0" d="M1118.1,507.3c0-10.7,7.2-18.7,17.9-18.7s17.9,8,17.9,18.7c0,10.7-7.2,18.7-17.9,18.7S1118.1,518,1118.1,507.3z
	 M1149.2,507.3c0-8.4-5.2-14.7-13.2-14.7s-13.2,6.2-13.2,14.7s5.1,14.7,13.2,14.7S1149.2,515.7,1149.2,507.3z"/>
<path class="st0" d="M1190.5,525.3l-21-28.8v28.8h-4.5v-36.1h4.6l20.8,28.2v-28.2h4.5v36.1H1190.5z"/>
</svg>
