<svg id="Layer_1" data-name="Layer 1" xmlns="http://www.w3.org/2000/svg" viewBox="0 0 1120.6 221.4"><defs><style>.cls-1{fill:#fff;}</style></defs><polygon class="cls-1" points="398 132 447.2 132 422.7 63.9 398 132"/><path class="cls-1" d="M3.47,2.77v221.4h537.9V2.77Zm169.8,125.5c0,36.9-21.1,62-66,62-45.4,0-66.5-25.4-66.5-61.8V39.27h32v88.1c0,20.7,11.3,34.9,34.5,34.9,22.7,0,34-14.2,34-34.9V39.27h32Zm162.2,59.4H305l-70.7-99.6v99.6h-31.6V39.37h32.5l68.7,96.1V39.37h31.6Zm133.2,0-9.3-25.6h-66.3l-9.4,25.6H349l57.4-148.3H446l57.2,148.3Z" transform="translate(-3.47 -2.77)"/><path class="cls-1" d="M582,53.77V31.67h4.5v22c0,6.6,3.6,10.8,10.2,10.8s10.2-4.2,10.2-10.8v-22h4.5v22c0,9-4.9,14.7-14.7,14.7S582,62.57,582,53.77Z" transform="translate(-3.47 -2.77)"/><path class="cls-1" d="M649.47,67.77l-21-28.8v28.8H624V31.67h4.6l20.7,28.2V31.67h4.5v36.1Z" transform="translate(-3.47 -2.77)"/><path class="cls-1" d="M666.27,67.77V31.67h4.5v36.1Z" transform="translate(-3.47 -2.77)"/><path class="cls-1" d="M694,67.77l-14.5-36.1h5.2l12.2,31.1,12.2-31.1h5.1l-14.5,36.1Z" transform="translate(-3.47 -2.77)"/><path class="cls-1" d="M722.87,67.77V31.67h23.6v4h-19.1v11.6h18.8v4h-18.8v12.4h19.1v4h-23.6Z" transform="translate(-3.47 -2.77)"/><path class="cls-1" d="M778.57,67.77l-9.2-14.3h-7.2v14.3h-4.5V31.67h14.5c6.6,0,11.3,4.2,11.3,10.9,0,6.5-4.4,10.1-9.3,10.5l9.7,14.7Zm.3-25.2c0-4.1-2.9-6.9-7.2-6.9h-9.5v13.8h9.5C775.87,49.47,778.87,46.57,778.87,42.57Z" transform="translate(-3.47 -2.77)"/><path class="cls-1" d="M792.47,62.67l2.6-3.4a15,15,0,0,0,11.4,5.1c6.4,0,8.5-3.5,8.5-6.2,0-9.3-21.4-4.2-21.4-17,0-5.9,5.3-10,12.4-10,5.5,0,9.8,1.8,12.8,5l-2.7,3.3a13.67,13.67,0,0,0-10.4-4.3c-4.3,0-7.4,2.3-7.4,5.7,0,8.1,21.4,3.5,21.4,16.9,0,5.2-3.6,10.6-13.3,10.6C800,68.37,795.47,66.07,792.47,62.67Z" transform="translate(-3.47 -2.77)"/><path class="cls-1" d="M830.37,67.77V31.67h4.5v36.1Z" transform="translate(-3.47 -2.77)"/><path class="cls-1" d="M856.27,67.77V35.67h-11.4v-4h27.4v4h-11.5v32.1Z" transform="translate(-3.47 -2.77)"/><path class="cls-1" d="M892.67,67.77V52.47l-14.2-20.8h5.2l11.2,16.8,11.2-16.8h5.2l-14.2,20.8v15.2Z" transform="translate(-3.47 -2.77)"/><path class="cls-1" d="M607.57,128.27l-21-28.8v28.8h-4.5V92.17h4.6l20.7,28.2V92.17h4.5v36.1Z" transform="translate(-3.47 -2.77)"/><path class="cls-1" d="M624.37,128.27V92.17H648v4h-19.1v11.6h18.8v4h-18.8v12.4H648v4h-23.6Z" transform="translate(-3.47 -2.77)"/><path class="cls-1" d="M659.17,128.27V92.17h4.5v36.1Z" transform="translate(-3.47 -2.77)"/><path class="cls-1" d="M674.67,110.27c0-11.2,8.3-18.7,18.5-18.7a17.06,17.06,0,0,1,14,6.8l-3.5,2.2a13.22,13.22,0,0,0-10.4-5c-7.9,0-13.9,6-13.9,14.6s6,14.7,13.9,14.7A14,14,0,0,0,703,121v-7.4h-12.4v-4h16.9v13a18.71,18.71,0,0,1-14.2,6.2C683,129,674.67,121.47,674.67,110.27Z" transform="translate(-3.47 -2.77)"/><path class="cls-1" d="M744.37,128.27v-16.5h-21.1v16.5h-4.5V92.17h4.5v15.5h21.1V92.17h4.5v36.1Z" transform="translate(-3.47 -2.77)"/><path class="cls-1" d="M761.27,128.27V92.17h16.1c6.3,0,10.1,3.8,10.1,9.2a8.28,8.28,0,0,1-6.3,8.3c3.8.6,7,4.5,7,8.9,0,5.8-3.8,9.7-10.4,9.7Zm21.6-26.2c0-3.2-2.2-5.8-6.2-5.8h-10.8v11.6h10.8c4,0,6.2-2.5,6.2-5.8Zm.7,16c0-3.3-2.3-6.2-6.7-6.2h-11v12.5h11c4.2-.1,6.7-2.5,6.7-6.3Z" transform="translate(-3.47 -2.77)"/><path class="cls-1" d="M797.87,110.27c0-10.6,7.2-18.7,17.9-18.7s17.9,8,17.9,18.7-7.2,18.7-17.9,18.7S797.87,121,797.87,110.27Zm31.2,0c0-8.4-5.2-14.6-13.2-14.6s-13.2,6.2-13.2,14.6,5.1,14.7,13.2,14.7S829.07,118.67,829.07,110.27Z" transform="translate(-3.47 -2.77)"/><path class="cls-1" d="M844.77,114.27V92.17h4.5v22c0,6.6,3.6,10.8,10.2,10.8s10.2-4.2,10.2-10.8v-22h4.5v22c0,9-4.9,14.7-14.7,14.7S844.77,123.17,844.77,114.27Z" transform="translate(-3.47 -2.77)"/><path class="cls-1" d="M907.57,128.27l-9.2-14.3h-7.2v14.3h-4.5V92.17h14.5c6.6,0,11.3,4.2,11.3,10.9,0,6.5-4.4,10.1-9.4,10.5l9.7,14.7Zm.3-25.2c0-4.1-2.9-6.9-7.2-6.9h-9.5V110h9.5c4.2,0,7.2-2.9,7.2-6.9Z" transform="translate(-3.47 -2.77)"/><path class="cls-1" d="M949.17,128.27v-16.5h-21.1v16.5h-4.4V92.17h4.5v15.5h21.1V92.17h4.4v36.1Z" transform="translate(-3.47 -2.77)"/><path class="cls-1" d="M964.67,110.27c0-10.6,7.2-18.7,17.9-18.7s17.9,8,17.9,18.7-7.2,18.7-17.9,18.7S964.67,121,964.67,110.27Zm31.2,0c0-8.4-5.2-14.6-13.2-14.6s-13.2,6.2-13.2,14.6,5.1,14.7,13.2,14.7,13.2-6.3,13.2-14.7Z" transform="translate(-3.47 -2.77)"/><path class="cls-1" d="M1010.17,110.27c0-10.6,7.2-18.7,17.9-18.7s17.9,8,17.9,18.7-7.2,18.7-17.9,18.7S1010.17,121,1010.17,110.27Zm31.1,0c0-8.4-5.2-14.6-13.2-14.6s-13.2,6.2-13.2,14.6,5.1,14.7,13.2,14.7S1041.27,118.67,1041.27,110.27Z" transform="translate(-3.47 -2.77)"/><path class="cls-1" d="M1057,128.27V92.17h12.3c11.2,0,18.5,7.8,18.5,18.1s-7.3,18-18.5,18Zm26.2-18c0-7.8-4.9-14.1-13.8-14.1h-7.8v28.1h7.8c8.7,0,13.8-6.3,13.8-14Z" transform="translate(-3.47 -2.77)"/><path class="cls-1" d="M1096.77,123.17l2.7-3.4a15,15,0,0,0,11.4,5.1c6.4,0,8.5-3.5,8.5-6.2,0-9.3-21.4-4.2-21.4-17,0-6,5.3-10,12.4-10,5.5,0,9.8,1.8,12.8,5l-2.7,3.3a13.67,13.67,0,0,0-10.4-4.3c-4.3,0-7.4,2.3-7.4,5.7,0,8.1,21.4,3.5,21.4,16.9,0,5.2-3.6,10.6-13.3,10.6C1104.37,129,1099.77,126.57,1096.77,123.17Z" transform="translate(-3.47 -2.77)"/><path class="cls-1" d="M607.77,188.77l-3.2-8h-18l-3.2,8h-5.1l14.5-36.1h5.6l14.5,36.1Zm-12.2-31.4-7.7,19.4h15.3Z" transform="translate(-3.47 -2.77)"/><path class="cls-1" d="M618.67,183.67l2.7-3.4a15.12,15.12,0,0,0,11.4,5.2c6.4,0,8.5-3.5,8.5-6.2,0-9.3-21.4-4.2-21.4-17,0-6,5.3-10,12.4-10,5.5,0,9.8,1.8,12.8,5l-2.7,3.3a13.67,13.67,0,0,0-10.4-4.3c-4.3,0-7.4,2.3-7.4,5.7,0,8.1,21.4,3.5,21.4,16.9,0,5.2-3.6,10.6-13.3,10.6C626.27,189.47,621.67,187.07,618.67,183.67Z" transform="translate(-3.47 -2.77)"/><path class="cls-1" d="M654.47,183.67l2.7-3.4a15.12,15.12,0,0,0,11.4,5.2c6.4,0,8.5-3.5,8.5-6.2,0-9.3-21.4-4.2-21.4-17,0-6,5.3-10,12.4-10,5.5,0,9.8,1.8,12.8,5l-2.7,3.3a13.76,13.76,0,0,0-10.4-4.4c-4.3,0-7.4,2.3-7.4,5.7,0,8.1,21.4,3.5,21.4,16.9,0,5.2-3.6,10.6-13.3,10.6C662.07,189.47,657.47,187.07,654.47,183.67Z" transform="translate(-3.47 -2.77)"/><path class="cls-1" d="M690.87,170.77c0-10.7,7.2-18.7,17.9-18.7s17.9,8,17.9,18.7-7.2,18.7-17.9,18.7S690.87,181.47,690.87,170.77Zm31.2,0c0-8.4-5.2-14.7-13.2-14.7s-13.2,6.2-13.2,14.7,5,14.7,13.1,14.7S722.07,179.17,722.07,170.77Z" transform="translate(-3.47 -2.77)"/><path class="cls-1" d="M736.37,170.77c0-11.1,8.2-18.7,18.5-18.7a16.27,16.27,0,0,1,13.7,7.1l-3.8,2.1a11.93,11.93,0,0,0-9.9-5.2c-7.9,0-13.9,6.1-13.9,14.7s6,14.7,13.9,14.7a12,12,0,0,0,9.9-5.2l3.8,2.1a16.12,16.12,0,0,1-13.7,7.2C744.47,189.47,736.37,181.87,736.37,170.77Z" transform="translate(-3.47 -2.77)"/><path class="cls-1" d="M778.37,188.77v-36.1h4.5v36.1Z" transform="translate(-3.47 -2.77)"/><path class="cls-1" d="M821.07,188.77l-3.2-8h-18l-3.2,8h-5.1l14.5-36.1h5.5l14.6,36.1ZM809,157.37l-7.7,19.4h15.3Z" transform="translate(-3.47 -2.77)"/><path class="cls-1" d="M840.27,188.77v-32.1h-11.4v-4h27.4v4h-11.5v32.1Z" transform="translate(-3.47 -2.77)"/><path class="cls-1" d="M866.27,188.77v-36.1h4.5v36.1Z" transform="translate(-3.47 -2.77)"/><path class="cls-1" d="M881.77,170.77c0-10.7,7.2-18.7,17.9-18.7s17.9,8,17.9,18.7-7.2,18.7-17.9,18.7S881.77,181.47,881.77,170.77Zm31.1,0c0-8.4-5.2-14.7-13.2-14.7s-13.2,6.2-13.2,14.7,5.1,14.7,13.2,14.7S912.87,179.17,912.87,170.77Z" transform="translate(-3.47 -2.77)"/><path class="cls-1" d="M954.17,188.77l-21-28.8v28.8h-4.5v-36.1h4.6l20.8,28.2v-28.2h4.5v36.1Z" transform="translate(-3.47 -2.77)"/></svg>